<?xml version="1.0" standalone="no"?>
<!DOCTYPE svg PUBLIC "-//W3C//DTD SVG 20010904//EN"
 "http://www.w3.org/TR/2001/REC-SVG-20010904/DTD/svg10.dtd">
<svg version="1.0" xmlns="http://www.w3.org/2000/svg"
 width="900.000000pt" height="900.000000pt" viewBox="0 0 900.000000 900.000000"
 preserveAspectRatio="xMidYMid meet">
<metadata>
Created by potrace 1.11, written by Peter Selinger 2001-2013
</metadata>
<g transform="translate(0.000000,900.000000) scale(0.100000,-0.100000)"
fill="#000000" stroke="none">
<path d="M1050 4510 c0 -1655 3 -3010 8 -3011 9 -1 1522 -1 1542 0 13 1 15
116 15 987 0 542 3 991 7 997 4 7 181 11 590 13 321 1 592 4 603 7 11 3 49 8
85 12 115 12 128 14 192 26 35 6 74 13 88 15 47 8 245 65 315 91 104 38 290
133 370 188 438 303 686 747 750 1340 39 354 10 769 -74 1057 -67 227 -210
502 -332 638 -213 237 -408 375 -684 485 -149 59 -429 126 -583 140 -41 4 -97
10 -125 15 -29 4 -663 9 -1409 9 l-1358 2 0 -3011z m2300 1735 c380 -57 594
-258 638 -598 8 -66 8 -226 -2 -297 -17 -134 -87 -289 -167 -371 -41 -42 -124
-100 -181 -127 -89 -42 -194 -70 -333 -88 -86 -11 -675 -11 -684 1 -5 8 -8
1425 -2 1482 1 8 88 11 344 8 188 -2 362 -6 387 -10z"/>
<path d="M5628 3798 c-2 -7 -4 -530 -4 -1163 l1 -1150 303 -3 302 -2 0 711 0
712 62 -79 c34 -44 94 -119 133 -169 130 -164 628 -799 665 -846 19 -25 85
-110 145 -187 l110 -141 303 -1 302 0 0 1165 0 1165 -300 0 -300 0 -1 -27 c0
-16 0 -335 -1 -710 0 -376 -1 -683 -3 -683 -1 0 -22 26 -46 57 -24 32 -51 67
-60 78 -19 21 -710 901 -766 973 -18 24 -80 104 -139 178 l-106 134 -298 0
c-229 0 -299 -3 -302 -12z"/>
</g>
</svg>
