<?xml version="1.0" standalone="no"?>
<!DOCTYPE svg PUBLIC "-//W3C//DTD SVG 20010904//EN"
 "http://www.w3.org/TR/2001/REC-SVG-20010904/DTD/svg10.dtd">
<svg version="1.0" xmlns="http://www.w3.org/2000/svg"
 width="1366.000000pt" height="1366.000000pt" viewBox="0 0 1366.000000 1366.000000"
 preserveAspectRatio="xMidYMid meet">
<metadata>
Created by potrace 1.11, written by Peter Selinger 2001-2013
</metadata>
<g transform="translate(0.000000,1366.000000) scale(0.100000,-0.100000)"
fill="#000000" stroke="none">
<path d="M2740 6840 l0 -3570 928 0 927 0 0 1183 0 1182 600 1 c754 1 856 6
1145 55 432 72 797 232 1095 479 136 112 318 329 412 490 100 170 148 284 223
525 19 61 57 240 65 305 3 19 7 51 10 70 19 125 29 280 29 465 -1 146 -9 340
-17 380 -3 11 -7 47 -11 80 -30 263 -132 599 -248 815 -291 540 -754 877
-1412 1030 -49 11 -105 23 -125 25 -20 3 -49 7 -64 11 -33 7 -58 10 -143 19
-33 4 -74 9 -90 12 -16 3 -770 8 -1676 10 l-1648 4 0 -3571z m2655 2066 c315
-32 521 -126 673 -311 73 -88 139 -261 157 -414 9 -72 9 -242 0 -311 -28 -227
-119 -408 -265 -526 -57 -46 -192 -123 -224 -128 -6 -1 -24 -7 -41 -13 -30
-12 -135 -38 -190 -47 -88 -16 -204 -20 -540 -20 l-370 -1 -1 880 c0 484 1
885 3 890 4 12 682 12 798 1z"/>
<path d="M8164 4630 l0 -1380 358 0 358 0 1 33 c0 17 1 396 1 842 0 772 1 808
18 788 25 -32 329 -418 371 -472 74 -96 822 -1047 846 -1076 13 -16 39 -49 56
-72 l30 -43 359 0 358 0 0 23 c1 30 1 2617 0 2685 l0 52 -355 0 -355 0 -1 -37
c0 -21 -1 -396 -1 -833 0 -437 -2 -798 -5 -802 -2 -5 -20 13 -40 40 -20 26
-93 119 -162 207 -69 88 -129 165 -133 170 -4 6 -25 31 -45 56 -21 26 -51 64
-68 85 -16 22 -106 136 -199 254 -92 118 -180 230 -195 249 -14 19 -55 71 -91
116 -36 45 -77 97 -92 116 -14 19 -65 84 -113 144 -47 61 -107 138 -133 172
l-47 63 -360 0 -361 0 0 -1380z"/>
</g>
</svg>
